<?xml version="1.0" encoding="UTF-8"?>
<!-- Created with Inkscape (http://www.inkscape.org/) -->
<svg width="512" height="512" version="1.1" viewBox="0 0 135.47 135.47" xmlns="http://www.w3.org/2000/svg">
   <style>
        .bg {
            fill: #faf5ff;
        }
        .fg {
            fill: #1f003d;
        }
        @media (prefers-color-scheme: dark) {
            .bg {
                fill: #17002e;
            }
            .fg {
                fill: #f7f0ff;
            }
        }
    </style>
 <g transform="translate(-88.987 -69.499)">
  <rect class="bg" x="88.987" y="69.499" width="135.47" height="135.47" ry="31.916"/>
  <g class="fg" style="stroke-width:2.2606" aria-label="PG">
   <path d="m109.61 168.29-0.99465-6.3296 5.7871-1.1755v-47.743l-5.6966-0.54253v-6.6913h18.537q6.9626 0 11.755 1.6276 4.7924 1.5372 7.7764 4.3403 2.984 2.7127 4.3403 6.3296 1.3564 3.5265 1.3564 7.5955 0 6.6009-3.1648 11.212-3.0744 4.5211-8.5902 6.9626-5.4254 2.351-12.75 2.351h-4.702v14.196l13.202 1.8989-0.27127 5.9679zm13.654-29.84h2.984q7.053-0.0904 10.67-1.8085 3.7073-1.718 4.9733-4.6116 1.2659-2.8935 1.2659-6.42 0-5.9679-3.8882-8.9519-3.7978-3.0744-10.579-3.0744h-5.4254z"/>
   <path d="m188.91 168.65q-6.5104 0-12.298-2.0797-5.6966-2.0797-10.037-5.9679-4.3403-3.9786-6.7817-9.7657-2.4414-5.7871-2.4414-13.202 0-9.5848 3.9786-16.728 3.9786-7.2338 11.032-11.122 7.1434-3.9786 16.276-3.9786 2.8935 0 5.5158 0.27127 2.7127 0.27127 4.8828 0.72338 2.2606 0.45212 3.6169 0.90423l1.3563 16.186h-6.5104l-3.2552-10.037q-1.0851-0.0904-2.5318-0.18084-1.4468-0.18085-3.3456-0.18085-6.6009 0-11.484 3.1648-4.8828 3.0744-7.5955 8.4998-2.7127 5.4254-2.7127 12.388t2.8935 12.298q2.8935 5.2445 8.2285 8.2285 5.4254 2.984 12.84 2.984 1.3563 0 2.7127-0.0904 1.4468-0.0904 2.5318-0.36169v-13.473l-10.308-1.2659 1.6276-6.3296h17.542v27.579q-1.8989 0.36169-4.5211 0.8138-2.5318 0.3617-5.4254 0.54254-2.8935 0.18085-5.7871 0.18085z"/>
  </g>
 </g>
</svg>
