<?xml version="1.0" standalone="no"?>
<!DOCTYPE svg PUBLIC "-//W3C//DTD SVG 20010904//EN"
 "http://www.w3.org/TR/2001/REC-SVG-20010904/DTD/svg10.dtd">
<svg version="1.0" xmlns="http://www.w3.org/2000/svg"
 width="512.000000pt" height="512.000000pt" viewBox="0 0 512.000000 512.000000"
 preserveAspectRatio="xMidYMid meet">
<metadata>
Created by potrace 1.14, written by Peter Selinger 2001-2017
</metadata>
<g transform="translate(0.000000,512.000000) scale(0.100000,-0.100000)"
fill="#000000" stroke="none">
<path d="M748 3743 c-6 -11 -3 -241 3 -247 2 -2 47 -7 99 -11 52 -4 98 -9 103
-12 4 -2 7 -409 7 -903 l0 -900 -22 -5 c-13 -3 -61 -13 -108 -23 l-85 -17 3
-35 c2 -19 6 -43 8 -55 2 -11 7 -42 10 -70 11 -88 -38 -80 516 -79 271 1 495
2 499 3 3 0 6 41 8 90 1 50 4 99 6 110 5 25 23 21 -305 67 l-195 27 0 268 0
269 135 1 c74 1 146 2 160 4 513 39 817 337 805 788 -5 212 -58 349 -188 484
-116 121 -292 200 -532 239 -61 9 -922 16 -927 7z m874 -297 c268 -38 413
-184 422 -426 12 -298 -140 -460 -464 -495 -88 -10 -280 -14 -281 -7 -6 32 -3
919 2 927 8 11 246 11 321 1z"/>
<path d="M3572 3734 c-155 -22 -346 -86 -434 -146 -14 -10 -29 -18 -33 -18
-16 0 -159 -116 -206 -168 -139 -152 -247 -360 -283 -542 -3 -14 -7 -36 -10
-50 -11 -47 -20 -175 -20 -265 1 -278 59 -486 192 -685 169 -253 456 -423 802
-474 89 -13 414 -14 480 -2 14 2 52 7 85 10 33 3 69 8 80 10 11 2 40 7 65 12
25 4 48 9 53 10 4 1 12 2 17 3 7 1 9 177 8 522 l-3 521 -323 0 c-178 0 -327
-4 -331 -8 -10 -11 -65 -223 -60 -228 4 -4 72 -13 164 -22 28 -2 60 -7 73 -10
12 -2 48 -7 79 -10 31 -2 59 -7 62 -10 3 -3 6 -118 7 -255 l0 -249 -30 -9
c-50 -13 -275 -11 -358 4 -271 48 -467 177 -594 390 -84 139 -119 293 -117
500 1 140 9 198 44 311 92 298 317 508 605 565 62 12 310 16 369 6 20 -4 53
-85 119 -298 l26 -85 123 0 122 1 -2 30 c-1 30 -10 143 -17 225 -2 25 -7 83
-11 130 -4 47 -8 99 -10 115 -1 17 -3 47 -4 67 -1 42 -16 54 -78 64 -21 3 -41
8 -44 10 -3 2 -19 5 -35 8 -191 32 -426 40 -572 20z"/>
</g>
</svg>
