<?xml version="1.0" standalone="no"?>
<!DOCTYPE svg PUBLIC "-//W3C//DTD SVG 20010904//EN"
 "http://www.w3.org/TR/2001/REC-SVG-20010904/DTD/svg10.dtd">
<svg version="1.0" xmlns="http://www.w3.org/2000/svg"
 width="700.000000pt" height="700.000000pt" viewBox="0 0 700.000000 700.000000"
 preserveAspectRatio="xMidYMid meet">
<metadata>
Created by potrace 1.14, written by Peter Selinger 2001-2017
</metadata>
<g transform="translate(0.000000,700.000000) scale(0.100000,-0.100000)"
fill="#000000" stroke="none">
<path d="M1020 4950 l0 -169 33 -5 c17 -3 64 -8 102 -11 39 -3 89 -8 113 -12
l42 -5 0 -1233 0 -1232 -137 -28 c-76 -16 -142 -32 -147 -36 -6 -5 0 -70 14
-164 l23 -155 687 0 687 0 6 83 c4 45 7 114 7 152 l0 71 -272 38 c-150 21
-303 43 -341 48 l-67 10 2 367 3 366 250 6 c243 6 290 11 425 42 167 39 341
122 467 221 253 200 378 498 360 855 -27 529 -380 867 -990 946 -94 12 -235
15 -693 15 l-574 0 0 -170z m1290 -254 c251 -63 411 -203 466 -407 35 -134 27
-318 -21 -460 -46 -135 -122 -218 -260 -287 -139 -68 -263 -92 -527 -99 l-198
-6 0 643 0 642 238 -5 c171 -3 255 -9 302 -21z"/>
<path d="M4940 5114 c-14 -2 -59 -9 -99 -15 -289 -43 -575 -174 -792 -364
-183 -159 -346 -412 -428 -662 -71 -216 -102 -494 -82 -738 20 -255 62 -418
160 -620 209 -427 585 -700 1114 -807 102 -21 139 -23 412 -23 307 1 433 11
660 53 l90 17 3 713 2 712 -454 0 -455 0 -15 -52 c-21 -74 -66 -255 -66 -266
0 -5 64 -16 143 -26 78 -9 197 -24 265 -33 l122 -16 0 -347 0 -348 -27 -6
c-71 -17 -340 -18 -458 -2 -542 72 -911 418 -1006 946 -21 111 -18 420 5 540
62 336 235 610 495 781 216 143 433 192 751 168 85 -6 157 -15 160 -20 3 -4
41 -120 85 -258 l80 -251 168 0 167 0 -1 33 c-1 68 -65 796 -70 802 -11 10
-200 53 -309 70 -100 16 -557 30 -620 19z"/>
</g>
</svg>
