<?xml version="1.0" standalone="no"?>
<!DOCTYPE svg PUBLIC "-//W3C//DTD SVG 20010904//EN"
 "http://www.w3.org/TR/2001/REC-SVG-20010904/DTD/svg10.dtd">
<svg version="1.0" xmlns="http://www.w3.org/2000/svg"
 width="700.000000pt" height="700.000000pt" viewBox="0 0 700.000000 700.000000"
 preserveAspectRatio="xMidYMid meet">
<metadata>
Created by potrace 1.14, written by Peter Selinger 2001-2017
</metadata>
<g transform="translate(0.000000,700.000000) scale(0.100000,-0.100000)"
fill="#000000" stroke="none">
<path d="M1020 4951 l0 -169 48 -6 c26 -3 79 -8 117 -11 39 -4 82 -9 98 -11
l27 -6 0 -1233 0 -1234 -57 -11 c-142 -29 -225 -49 -230 -54 -3 -3 5 -74 18
-158 l24 -153 686 -3 686 -2 8 146 c5 103 4 149 -4 153 -6 4 -147 27 -314 50
-166 24 -314 46 -329 48 l-28 6 0 367 0 368 248 5 c259 5 345 15 505 62 290
84 531 274 652 516 81 160 119 391 97 588 -47 421 -277 697 -692 829 -232 74
-332 82 -1006 82 l-554 0 0 -169z m1315 -259 c184 -50 333 -160 400 -295 51
-104 68 -197 62 -337 -13 -266 -102 -421 -298 -518 -143 -71 -320 -102 -576
-102 l-153 0 0 641 0 641 243 -4 c207 -4 254 -8 322 -26z"/>
<path d="M4940 5113 c-19 -2 -84 -13 -145 -24 -458 -85 -828 -345 -1048 -736
-162 -286 -233 -636 -206 -1013 29 -418 167 -740 428 -1000 248 -247 561 -394
951 -446 222 -29 673 -8 950 44 l95 18 3 712 2 712 -450 0 -449 0 -10 -37
c-34 -130 -71 -286 -69 -288 2 -1 109 -14 238 -29 129 -16 247 -30 263 -33
l27 -5 0 -348 0 -348 -22 -7 c-13 -4 -99 -9 -193 -12 -271 -8 -470 29 -671
127 -339 164 -548 461 -611 865 -21 137 -12 413 17 540 59 262 155 444 323
613 230 234 531 333 915 303 86 -6 158 -14 160 -16 2 -2 41 -118 86 -257 l83
-253 166 -3 c127 -2 167 0 167 10 0 23 -60 743 -66 785 l-5 42 -89 20 c-133
32 -183 40 -325 56 -116 13 -421 18 -515 8z"/>
</g>
</svg>
